<svg width="22" height="20" viewBox="0 0 22 20" fill="none" xmlns="http://www.w3.org/2000/svg">
<path d="M10.0846 0.859336C10.3844 -0.0609409 11.6863 -0.06094 11.9862 0.859337L13.7373 6.23373C13.8714 6.64536 14.2552 6.92394 14.6881 6.92394H20.3488C21.3182 6.92394 21.7206 8.16497 20.9356 8.73373L16.3607 12.0484C16.0092 12.303 15.8621 12.7553 15.9966 13.168L17.7452 18.5346C18.0452 19.4554 16.9919 20.2224 16.2077 19.6542L11.6221 16.3318C11.2721 16.0782 10.7987 16.0782 10.4487 16.3318L5.86312 19.6542C5.07886 20.2224 4.02557 19.4554 4.32559 18.5346L6.07417 13.168C6.20862 12.7553 6.06154 12.303 5.71008 12.0484L1.13521 8.73373C0.350201 8.16497 0.752531 6.92394 1.72193 6.92394H7.38268C7.81561 6.92394 8.19937 6.64536 8.33349 6.23373L10.0846 0.859336Z" fill="#070707"/>
</svg>
